<?xml version="1.0" standalone="no"?><!DOCTYPE svg PUBLIC "-//W3C//DTD SVG 1.1//EN" "http://www.w3.org/Graphics/SVG/1.1/DTD/svg11.dtd"><svg xmlns="http://www.w3.org/2000/svg" viewBox="0 0 650 400" version="1.1"><clipPath id="box"><rect x="0" y="0" width="650" height="400" style="fill:none;stroke:none;" /></clipPath><g clip-path="url(#box)"><rect x="0.00" y="0.00" width="650.00" height="400.00" style="fill:#FFFFFF;stroke:none;" /><path d="M0.00 400.00 L650.00 400.00 M0.00 360.00 L650.00 360.00 M0.00 320.00 L650.00 320.00 M0.00 280.00 L650.00 280.00 M0.00 240.00 L650.00 240.00 M0.00 200.00 L650.00 200.00 M0.00 160.00 L650.00 160.00 M0.00 120.00 L650.00 120.00 M0.00 79.00 L650.00 79.00 M0.00 39.00 L650.00 39.00 M0.00 0.00 L650.00 0.00 M62.00 0.00 L62.00 400.00 M128.00 0.00 L128.00 400.00 M193.00 0.00 L193.00 400.00 M259.00 0.00 L259.00 400.00 M325.00 0.00 L325.00 400.00 M390.00 0.00 L390.00 400.00 M456.00 0.00 L456.00 400.00 M521.00 0.00 L521.00 400.00 M587.00 0.00 L587.00 400.00 " style="fill:none;stroke:#D0D0D0;stroke-width:1;" /><path d="M325.00 0.00 L325.00 400.00 " style="fill:none;stroke:#000000;stroke-width:1;" /><path d="M318.50 400.00 L331.50 400.00 M318.50 360.00 L331.50 360.00 M318.50 320.00 L331.50 320.00 M318.50 280.00 L331.50 280.00 M318.50 240.00 L331.50 240.00 M318.50 200.00 L331.50 200.00 M318.50 160.00 L331.50 160.00 M318.50 120.00 L331.50 120.00 M318.50 80.00 L331.50 80.00 M318.50 40.00 L331.50 40.00 M318.50 0.00 L331.50 0.00 " style="fill:none;stroke:#000000;stroke-width:1;" /><path d="M0.00 200.00 L650.00 200.00 " style="fill:none;stroke:#000000;stroke-width:1;" /><path d="M-2.68 193.50 L-2.68 206.50 M62.86 193.50 L62.86 206.50 M128.39 193.50 L128.39 206.50 M193.93 193.50 L193.93 206.50 M259.46 193.50 L259.46 206.50 M325.00 193.50 L325.00 206.50 M390.54 193.50 L390.54 206.50 M456.07 193.50 L456.07 206.50 M521.61 193.50 L521.61 206.50 M587.14 193.50 L587.14 206.50 " style="fill:none;stroke:#000000;stroke-width:1;" /><text x="333.125" y="362.5" text-anchor="start" style="font:10px Droid Sans,Trebuchet MS,Arial,Helvetica,sans-serif;stroke:none;fill:#000000">-8</text><text x="333.125" y="322.5" text-anchor="start" style="font:10px Droid Sans,Trebuchet MS,Arial,Helvetica,sans-serif;stroke:none;fill:#000000">-6</text><text x="333.125" y="282.5" text-anchor="start" style="font:10px Droid Sans,Trebuchet MS,Arial,Helvetica,sans-serif;stroke:none;fill:#000000">-4</text><text x="333.125" y="242.5" text-anchor="start" style="font:10px Droid Sans,Trebuchet MS,Arial,Helvetica,sans-serif;stroke:none;fill:#000000">-2</text><text x="333.125" y="202.5" text-anchor="start" style="font:10px Droid Sans,Trebuchet MS,Arial,Helvetica,sans-serif;stroke:none;fill:#000000">0</text><text x="333.125" y="162.5" text-anchor="start" style="font:10px Droid Sans,Trebuchet MS,Arial,Helvetica,sans-serif;stroke:none;fill:#000000">2</text><text x="333.125" y="122.5" text-anchor="start" style="font:10px Droid Sans,Trebuchet MS,Arial,Helvetica,sans-serif;stroke:none;fill:#000000">4</text><text x="333.125" y="82.5" text-anchor="start" style="font:10px Droid Sans,Trebuchet MS,Arial,Helvetica,sans-serif;stroke:none;fill:#000000">6</text><text x="333.125" y="42.5" text-anchor="start" style="font:10px Droid Sans,Trebuchet MS,Arial,Helvetica,sans-serif;stroke:none;fill:#000000">8</text><text x="62.8559999999997" y="216.125" text-anchor="middle" style="font:10px Droid Sans,Trebuchet MS,Arial,Helvetica,sans-serif;stroke:none;fill:#000000">-20</text><text x="128.39199999999977" y="216.125" text-anchor="middle" style="font:10px Droid Sans,Trebuchet MS,Arial,Helvetica,sans-serif;stroke:none;fill:#000000">-15</text><text x="193.92799999999983" y="216.125" text-anchor="middle" style="font:10px Droid Sans,Trebuchet MS,Arial,Helvetica,sans-serif;stroke:none;fill:#000000">-10</text><text x="259.46399999999994" y="216.125" text-anchor="middle" style="font:10px Droid Sans,Trebuchet MS,Arial,Helvetica,sans-serif;stroke:none;fill:#000000">-5</text><text x="325" y="216.125" text-anchor="middle" style="font:10px Droid Sans,Trebuchet MS,Arial,Helvetica,sans-serif;stroke:none;fill:#000000">0</text><text x="390.53600000000006" y="216.125" text-anchor="middle" style="font:10px Droid Sans,Trebuchet MS,Arial,Helvetica,sans-serif;stroke:none;fill:#000000">5</text><text x="456.0720000000002" y="216.125" text-anchor="middle" style="font:10px Droid Sans,Trebuchet MS,Arial,Helvetica,sans-serif;stroke:none;fill:#000000">10</text><text x="521.6080000000003" y="216.125" text-anchor="middle" style="font:10px Droid Sans,Trebuchet MS,Arial,Helvetica,sans-serif;stroke:none;fill:#000000">15</text><text x="587.1440000000003" y="216.125" text-anchor="middle" style="font:10px Droid Sans,Trebuchet MS,Arial,Helvetica,sans-serif;stroke:none;fill:#000000">20</text><path d="M-10.00 200.00 L-0.25 180.00 L0.75 180.00 L2.75 180.00 L4.75 180.00 L6.75 180.00 L8.75 180.00 L10.75 180.00 L12.75 180.00 L14.75 180.00 L16.75 180.00 L18.75 180.00 L20.75 180.00 L22.75 180.00 L24.75 180.00 L26.75 180.00 L28.75 180.00 L30.75 180.00 L32.75 180.00 L34.75 180.00 L36.75 180.00 L38.75 180.00 L40.75 180.00 L42.75 180.00 L44.75 180.00 L46.75 180.00 L48.75 180.00 L50.75 180.00 L52.75 180.00 L54.75 180.00 L56.75 180.00 L58.75 180.00 L60.75 180.00 L62.75 180.00 L64.75 180.00 L66.75 180.00 L68.75 180.00 L70.75 180.00 L72.75 180.00 L74.75 180.00 L76.75 180.00 L78.75 180.00 L80.75 180.00 L82.75 180.00 L84.75 180.00 L86.75 180.00 L88.75 180.00 L90.75 180.00 L92.75 180.00 L94.75 180.00 L96.75 180.00 L98.75 180.00 L100.75 180.00 L102.75 180.00 L104.75 180.00 L106.75 180.00 L108.75 180.00 L110.75 180.00 L112.75 180.00 L114.75 180.00 L116.75 180.00 L118.75 180.00 L120.75 180.00 L122.75 180.00 L124.75 180.00 L126.75 180.00 L128.75 180.00 L130.75 180.00 L132.75 180.00 L134.75 180.00 L136.75 180.00 L138.75 180.00 L140.75 180.00 L142.75 180.00 L144.75 180.00 L146.75 180.00 L148.75 180.00 L150.75 180.00 L152.75 180.00 L154.75 180.00 L156.75 180.00 L158.75 180.00 L160.75 180.00 L162.75 180.00 L164.75 180.00 L166.75 180.00 L168.75 180.00 L170.75 180.00 L172.75 180.00 L174.75 180.00 L176.75 180.00 L178.75 180.00 L180.75 180.00 L182.75 180.00 L184.75 180.00 L186.75 180.00 L188.75 180.00 L190.75 180.00 L192.75 180.00 L194.75 180.00 L196.75 180.00 L198.75 180.00 L200.75 180.00 L202.75 180.00 L204.75 180.00 L206.75 180.00 L208.75 180.00 L210.75 180.00 L212.75 180.00 L214.75 180.00 L216.75 180.00 L218.75 180.00 L220.75 180.00 L222.75 180.00 L224.75 180.00 L226.75 180.00 L228.75 180.00 L230.75 180.00 L232.75 180.00 L234.75 180.00 L236.75 180.00 L238.75 180.00 L240.75 180.00 L242.75 180.00 L244.75 180.00 L246.75 180.00 L248.75 180.00 L250.75 180.00 L252.75 180.00 L254.75 180.00 L256.75 180.00 L258.75 180.00 L260.75 180.00 L262.75 180.00 L264.75 180.00 L266.75 180.00 L268.75 180.00 L270.75 180.00 L272.75 180.00 L274.75 180.00 L276.75 180.00 L278.75 180.00 L280.75 180.00 L282.75 180.00 L284.75 180.00 L286.75 180.00 L288.75 180.00 L290.75 180.00 L292.75 180.00 L294.75 180.00 L296.75 180.00 L298.75 180.00 L300.75 180.00 L302.75 180.00 L304.75 180.00 L306.75 180.00 L308.75 180.00 L310.75 180.00 L312.75 180.00 L314.75 180.00 L316.75 180.00 L318.75 180.00 L320.75 180.00 L322.75 180.00 L324.75 180.00 L326.75 177.33 L327.50 176.19 L328.15 175.19 L328.81 174.19 L329.47 173.19 L330.12 172.19 L330.78 171.19 L331.43 170.19 L332.09 169.19 L332.74 168.19 L333.40 167.19 L334.05 166.19 L334.71 165.19 L335.36 164.19 L336.02 163.19 L336.67 162.19 L337.33 161.19 L337.98 160.19 L338.64 159.19 L339.30 158.19 L339.95 157.19 L340.61 156.19 L341.26 155.19 L341.92 154.19 L342.57 153.19 L343.23 152.19 L343.88 151.19 L344.54 150.19 L345.19 149.19 L345.85 148.19 L346.50 147.19 L347.16 146.19 L347.82 145.19 L348.47 144.19 L349.13 143.19 L349.78 142.19 L350.44 141.19 L351.09 140.19 L351.75 139.19 L352.40 138.19 L353.06 137.19 L353.71 136.19 L354.37 135.19 L355.02 134.19 L355.68 133.19 L356.33 132.19 L356.99 131.19 L357.65 130.19 L358.30 129.19 L358.96 128.19 L359.61 127.19 L360.27 126.19 L360.92 125.19 L361.58 124.19 L362.23 123.19 L362.89 122.19 L363.54 121.19 L364.20 120.19 L364.85 119.19 L365.51 118.19 L366.17 117.19 L366.82 116.19 L367.48 115.19 L368.13 114.19 L368.79 113.19 L369.44 112.19 L370.10 111.19 L370.75 110.19 L371.41 109.19 L372.06 108.19 L372.72 107.19 L373.37 106.19 L374.03 105.19 L374.69 104.19 L375.34 103.19 L376.00 102.19 L376.65 101.19 L377.31 100.19 L377.96 99.19 L378.62 98.19 L379.27 97.19 L379.93 96.19 L380.58 95.19 L381.24 94.19 L381.89 93.19 L382.55 92.19 L383.20 91.19 L383.86 90.19 L384.52 89.19 L385.17 88.19 L385.83 87.19 L386.48 86.19 L387.14 85.19 L387.79 84.19 L388.45 83.19 L389.10 82.19 L389.76 81.19 L390.41 80.19 L391.07 79.19 L391.72 78.19 L392.38 77.19 L393.04 76.19 L393.69 75.19 L394.35 74.19 L395.00 73.19 L395.66 72.19 L396.31 71.19 L396.97 70.19 L397.62 69.19 L398.28 68.19 L398.93 67.19 L399.59 66.19 L400.24 65.19 L400.90 64.19 L401.55 63.19 L402.21 62.19 L402.87 61.19 L403.52 60.19 L404.18 59.19 L404.83 58.19 L405.49 57.19 L406.14 56.19 L406.80 55.19 L407.45 54.19 L408.11 53.19 L408.76 52.19 L409.42 51.19 L410.07 50.19 L410.73 49.19 L411.39 48.19 L412.04 47.19 L412.70 46.19 L413.35 45.19 L414.01 44.19 L414.66 43.19 L415.32 42.19 L415.97 41.19 L416.63 40.19 L417.28 39.19 L417.94 38.19 L418.59 37.19 L419.25 36.19 L419.90 35.19 L420.56 34.19 L421.22 33.19 L421.87 32.19 L422.53 31.19 L423.18 30.19 L423.84 29.19 L424.49 28.19 L425.15 27.19 L425.80 26.19 L426.46 25.19 L427.11 24.19 L427.77 23.19 L428.42 22.19 L429.08 21.19 L429.74 20.19 L430.39 19.19 L431.05 18.19 L431.70 17.19 L432.36 16.19 L433.01 15.19 L433.67 14.19 L434.32 13.19 L434.98 12.19 L435.63 11.19 L436.29 10.19 L436.94 9.19 L437.60 8.19 L438.25 7.19 L438.91 6.19 L439.57 5.19 L440.22 4.19 L440.88 3.19 L441.53 2.19 L442.19 1.19 L442.84 0.19 L443.50 -0.81 " style="fill:none;stroke:#000000;stroke-width:1;" /><path d="M220.14 400.00 L220.14 400.00 L220.80 399.00 L221.45 398.00 L222.11 397.00 L222.76 396.00 L223.42 395.00 L224.08 394.00 L224.73 393.00 L225.39 392.00 L226.04 391.00 L226.70 390.00 L227.35 389.00 L228.01 388.00 L228.66 387.00 L229.32 386.00 L229.97 385.00 L230.63 384.00 L231.28 383.00 L231.94 382.00 L232.59 381.00 L233.25 380.00 L233.91 379.00 L234.56 378.00 L235.22 377.00 L235.87 376.00 L236.53 375.00 L237.18 374.00 L237.84 373.00 L238.49 372.00 L239.15 371.00 L239.80 370.00 L240.46 369.00 L241.11 368.00 L241.77 367.00 L242.43 366.00 L243.08 365.00 L243.74 364.00 L244.39 363.00 L245.05 362.00 L245.70 361.00 L246.36 360.00 L247.01 359.00 L247.67 358.00 L248.32 357.00 L248.98 356.00 L249.63 355.00 L250.29 354.00 L250.94 353.00 L251.60 352.00 L252.26 351.00 L252.91 350.00 L253.57 349.00 L254.22 348.00 L254.88 347.00 L255.53 346.00 L256.19 345.00 L256.84 344.00 L257.50 343.00 L258.15 342.00 L258.81 341.00 L259.46 340.00 L260.12 339.00 L260.78 338.00 L261.43 337.00 L262.09 336.00 L262.74 335.00 L263.40 334.00 L264.05 333.00 L264.71 332.00 L265.36 331.00 L266.02 330.00 L266.67 329.00 L267.33 328.00 L267.98 327.00 L268.64 326.00 L269.30 325.00 L269.95 324.00 L270.61 323.00 L271.26 322.00 L271.92 321.00 L272.57 320.00 L273.23 319.00 L273.88 318.00 L274.54 317.00 L275.19 316.00 L275.85 315.00 L276.50 314.00 L277.16 313.00 L277.81 312.00 L278.47 311.00 L279.13 310.00 L279.78 309.00 L280.44 308.00 L281.09 307.00 L281.75 306.00 L282.40 305.00 L283.06 304.00 L283.71 303.00 L284.37 302.00 L285.02 301.00 L285.68 300.00 L286.33 299.00 L286.99 298.00 L287.65 297.00 L288.30 296.00 L288.96 295.00 L289.61 294.00 L290.27 293.00 L290.92 292.00 L291.58 291.00 L292.23 290.00 L292.89 289.00 L293.54 288.00 L294.20 287.00 L294.85 286.00 L295.51 285.00 L296.16 284.00 L296.82 283.00 L297.48 282.00 L298.13 281.00 L298.79 280.00 L299.44 279.00 L300.10 278.00 L300.75 277.00 L301.41 276.00 L302.06 275.00 L302.72 274.00 L303.37 273.00 L304.03 272.00 L304.68 271.00 L305.34 270.00 L306.00 269.00 L306.65 268.00 L307.31 267.00 L307.96 266.00 L308.62 265.00 L309.27 264.00 L309.93 263.00 L310.58 262.00 L311.24 261.00 L311.89 260.00 L312.55 259.00 L313.20 258.00 L313.86 257.00 L314.51 256.00 L315.17 255.00 L315.83 254.00 L316.48 253.00 L317.14 252.00 L317.79 251.00 L318.45 250.00 L319.10 249.00 L319.76 248.00 L320.41 247.00 L321.07 246.00 L321.72 245.00 L322.38 244.00 L323.03 243.00 L323.69 242.00 L324.35 241.00 L325.00 240.00 L325.66 240.00 L327.66 240.00 L329.66 240.00 L331.66 240.00 L333.66 240.00 L335.66 240.00 L337.66 240.00 L339.66 240.00 L341.66 240.00 L343.66 240.00 L345.66 240.00 L347.66 240.00 L349.66 240.00 L351.66 240.00 L353.66 240.00 L355.66 240.00 L357.66 240.00 L359.66 240.00 L361.66 240.00 L363.66 240.00 L365.66 240.00 L367.66 240.00 L369.66 240.00 L371.66 240.00 L373.66 240.00 L375.66 240.00 L377.66 240.00 L379.66 240.00 L381.66 240.00 L383.66 240.00 L385.66 240.00 L387.66 240.00 L389.66 240.00 L391.66 240.00 L393.66 240.00 L395.66 240.00 L397.66 240.00 L399.66 240.00 L401.66 240.00 L403.66 240.00 L405.66 240.00 L407.66 240.00 L409.66 240.00 L411.66 240.00 L413.66 240.00 L415.66 240.00 L417.66 240.00 L419.66 240.00 L421.66 240.00 L423.66 240.00 L425.66 240.00 L427.66 240.00 L429.66 240.00 L431.66 240.00 L433.66 240.00 L435.66 240.00 L437.66 240.00 L439.66 240.00 L441.66 240.00 L443.66 240.00 L445.66 240.00 L447.66 240.00 L449.66 240.00 L451.66 240.00 L453.66 240.00 L455.66 240.00 L457.66 240.00 L459.66 240.00 L461.66 240.00 L463.66 240.00 L465.66 240.00 L467.66 240.00 L469.66 240.00 L471.66 240.00 L473.66 240.00 L475.66 240.00 L477.66 240.00 L479.66 240.00 L481.66 240.00 L483.66 240.00 L485.66 240.00 L487.66 240.00 L489.66 240.00 L491.66 240.00 L493.66 240.00 L495.66 240.00 L497.66 240.00 L499.66 240.00 L501.66 240.00 L503.66 240.00 L505.66 240.00 L507.66 240.00 L509.66 240.00 L511.66 240.00 L513.66 240.00 L515.66 240.00 L517.66 240.00 L519.66 240.00 L521.66 240.00 L523.66 240.00 L525.66 240.00 L527.66 240.00 L529.66 240.00 L531.66 240.00 L533.66 240.00 L535.66 240.00 L537.66 240.00 L539.66 240.00 L541.66 240.00 L543.66 240.00 L545.66 240.00 L547.66 240.00 L549.66 240.00 L551.66 240.00 L553.66 240.00 L555.66 240.00 L557.66 240.00 L559.66 240.00 L561.66 240.00 L563.66 240.00 L565.66 240.00 L567.66 240.00 L569.66 240.00 L571.66 240.00 L573.66 240.00 L575.66 240.00 L577.66 240.00 L579.66 240.00 L581.66 240.00 L583.66 240.00 L585.66 240.00 L587.66 240.00 L589.66 240.00 L591.66 240.00 L593.66 240.00 L595.66 240.00 L597.66 240.00 L599.66 240.00 L601.66 240.00 L603.66 240.00 L605.66 240.00 L607.66 240.00 L609.66 240.00 L611.66 240.00 L613.66 240.00 L615.66 240.00 L617.66 240.00 L619.66 240.00 L621.66 240.00 L623.66 240.00 L625.66 240.00 L627.66 240.00 L629.66 240.00 L631.66 240.00 L633.66 240.00 L635.66 240.00 L637.66 240.00 L639.66 240.00 L641.66 240.00 L643.66 240.00 L645.66 240.00 L647.66 240.00 L649.66 240.00 " style="fill:none;stroke:#000000;stroke-width:1;" /></g></svg>